<svg width="80" height="80" viewBox="0 0 500 500" fill="none" xmlns="http://www.w3.org/2000/svg">
<path fill-rule="evenodd" clip-rule="evenodd" d="M411.956 60.6479C370.084 72.806 323.377 80.4197 273.887 82.332V253.214H340.729V226.158H316.276V201.561H340.729H370.075H371.704V276.991H371.704V294.208H273.887V417.668C323.377 419.58 370.085 427.194 411.957 439.352C368.234 477.154 311.36 500 249.182 500C187.003 500 130.13 477.154 86.4066 439.352C128.651 427.086 175.816 419.445 225.794 417.618V294.208H127.161V276.991V253.214V201.561H128.792H158.137H182.591V226.158H158.137V253.214H225.794V82.3816C175.816 80.5546 128.65 72.914 86.406 60.648C130.129 22.8461 187.003 0 249.181 0C311.36 0 368.233 22.8461 411.956 60.6479ZM70.4802 80.2917C97.9538 92.9238 136.034 110.432 183.722 116.703V159.337H76.5313V336.022H183.722V380.706C163.208 382.619 111.99 393.825 66.342 419.241C10.9124 367.998 -50.2233 208.53 66.7496 78.5779C67.9687 79.1369 69.2104 79.7078 70.4746 80.2891L70.4802 80.2917ZM429.519 80.2917C402.045 92.9238 363.965 110.432 316.275 116.703V159.337H423.468V336.022H316.275V380.706C336.79 382.619 388.009 393.825 433.657 419.241C489.087 367.998 550.224 208.53 433.25 78.5779C432.029 79.1377 430.785 79.7095 429.519 80.2917Z" fill="#998D39"/>
</svg>
